<svg width="102" height="27" viewBox="0 0 102 27" fill="none" xmlns="http://www.w3.org/2000/svg">
<path d="M16.0117 12.5493C16.0117 9.60216 18.4962 8.1761 18.5918 8.08103C17.1584 6.08455 15.0561 5.79934 14.2916 5.70427C12.476 5.51413 10.6604 6.75005 9.80036 6.75005C8.84478 6.75005 7.4114 5.70427 5.88246 5.70427C3.87573 5.70427 2.06012 6.84512 1.00897 8.65146C-1.09332 12.2641 0.435619 17.5881 2.44235 20.5353C3.4935 21.9613 4.6402 23.5775 6.16914 23.4824C7.69808 23.3874 8.27143 22.5317 10.087 22.5317C11.9027 22.5317 12.3804 23.4824 14.0049 23.4824C15.6294 23.4824 16.6806 22.0564 17.6362 20.6303C18.7829 19.0141 19.2607 17.3979 19.2607 17.3029C19.1651 17.2078 16.0117 16.0669 16.0117 12.5493Z" fill="white"/>
<path d="M13.0493 3.80282C13.8137 2.75704 14.3871 1.42606 14.2915 0C13.1448 0.0950704 11.6159 0.760563 10.8514 1.80634C10.087 2.66197 9.41804 4.08803 9.60916 5.41901C10.8514 5.51408 12.1892 4.75352 13.0493 3.80282Z" fill="white"/>
<path d="M37.7989 23.2922H35.6966L34.5499 19.6795H30.5364L29.4853 23.2922H27.4785L31.492 11.0281H33.9765L37.7989 23.2922ZM34.1676 18.1584L33.1165 14.926C33.0209 14.6408 32.8298 13.7852 32.4476 12.6443C32.352 13.1197 32.1609 13.9753 31.8742 14.926L30.8231 18.1584H34.1676Z" fill="white"/>
<path d="M48.0241 18.8239C48.0241 20.345 47.6419 21.4859 46.7818 22.4366C46.0174 23.1971 45.1574 23.5774 44.0106 23.5774C42.8639 23.5774 42.0039 23.1971 41.5261 22.3415V27H39.5194V17.4929C39.5194 16.5422 39.5194 15.5915 39.4238 14.5457H41.1439L41.2394 15.9718C41.9084 14.926 42.8639 14.3556 44.2018 14.3556C45.2529 14.3556 46.1129 14.7359 46.7818 15.5915C47.6419 16.3521 48.0241 17.3978 48.0241 18.8239ZM46.0174 18.8239C46.0174 17.9683 45.8263 17.2077 45.444 16.7324C45.0618 16.1619 44.4884 15.8767 43.724 15.8767C43.2462 15.8767 42.7684 16.0669 42.3862 16.3521C42.0039 16.6373 41.7172 17.1126 41.6217 17.588C41.5261 17.8732 41.5261 18.0633 41.5261 18.1584V19.6795C41.5261 20.345 41.7172 20.8204 42.0995 21.2957C42.4817 21.7711 43.0551 21.9612 43.6284 21.9612C44.3929 21.9612 44.9662 21.676 45.3485 21.1056C45.8263 20.5352 46.0174 19.7746 46.0174 18.8239Z" fill="white"/>
<path d="M58.2487 18.8239C58.2487 20.345 57.8665 21.4859 57.0065 22.4366C56.242 23.1971 55.382 23.5774 54.2352 23.5774C53.0885 23.5774 52.2285 23.1971 51.7507 22.3415V27H49.744V17.4929C49.744 16.5422 49.744 15.5915 49.6484 14.5457H51.3685L51.4641 15.9718C52.133 14.926 53.0885 14.3556 54.4264 14.3556C55.4775 14.3556 56.3375 14.7359 57.0065 15.5915C57.8665 16.3521 58.2487 17.3978 58.2487 18.8239ZM56.242 18.8239C56.242 17.9683 56.0509 17.2077 55.6686 16.7324C55.2864 16.1619 54.713 15.8767 53.9486 15.8767C53.4708 15.8767 52.993 16.0669 52.6108 16.3521C52.2285 16.6373 51.9418 17.1126 51.8463 17.588C51.7507 17.8732 51.7507 18.0633 51.7507 18.1584V19.6795C51.7507 20.345 51.9418 20.8204 52.3241 21.2957C52.7063 21.7711 53.2797 21.9612 53.853 21.9612C54.6175 21.9612 55.1908 21.676 55.5731 21.1056C56.0509 20.5352 56.242 19.7746 56.242 18.8239Z" fill="white"/>
<path d="M69.7152 19.8697C69.7152 20.9155 69.3329 21.7711 68.664 22.4366C67.8995 23.1972 66.7528 23.4824 65.3195 23.4824C63.9816 23.4824 62.9305 23.1972 62.166 22.7218L62.6438 21.1056C63.5038 21.581 64.4594 21.8662 65.5106 21.8662C66.275 21.8662 66.8484 21.6761 67.2306 21.3909C67.6129 21.0106 67.804 20.6303 67.804 20.0599C67.804 19.5845 67.6129 19.1092 67.3262 18.824C66.9439 18.4437 66.3706 18.1585 65.6061 17.8732C63.4083 17.1127 62.3571 15.8768 62.3571 14.3556C62.3571 13.3099 62.7394 12.5493 63.5038 11.8838C64.2683 11.2183 65.2239 10.9331 66.5617 10.9331C67.7084 10.9331 68.5684 11.1232 69.3329 11.5035L68.8551 13.1197C68.1862 12.7394 67.4217 12.5493 66.4662 12.5493C65.7972 12.5493 65.2239 12.7394 64.8417 13.0247C64.555 13.3099 64.3639 13.6901 64.3639 14.1655C64.3639 14.6409 64.555 15.0211 64.9372 15.4014C65.2239 15.6866 65.8928 15.9718 66.7528 16.3521C67.804 16.7324 68.5684 17.3028 69.1418 17.8732C69.4285 18.3486 69.7152 19.0141 69.7152 19.8697Z" fill="white"/>
<path d="M76.2144 15.9718H74.0166V20.25C74.0166 21.2958 74.3988 21.8662 75.1633 21.8662C75.5455 21.8662 75.8322 21.8662 76.0233 21.7711L76.1189 23.2923C75.7366 23.4824 75.2588 23.4824 74.5899 23.4824C73.8255 23.4824 73.1566 23.2923 72.7743 22.8169C72.2965 22.3416 72.1054 21.581 72.1054 20.4402V15.9718H70.7676V14.4507H72.1054V12.8345L74.0166 12.2641V14.4507H76.2144V15.9718Z" fill="white"/>
<path d="M86.0552 18.8239C86.0552 20.1549 85.673 21.2958 84.9085 22.1514C84.0485 23.007 82.9973 23.4824 81.6595 23.4824C80.3217 23.4824 79.2706 23.007 78.5061 22.1514C77.7416 21.2958 77.3594 20.25 77.3594 18.919C77.3594 17.588 77.7416 16.4472 78.6016 15.5915C79.3661 14.7359 80.5128 14.2606 81.8506 14.2606C83.1885 14.2606 84.2396 14.7359 85.0041 15.5915C85.673 16.4472 86.0552 17.493 86.0552 18.8239ZM83.9529 18.919C83.9529 18.0634 83.7618 17.3979 83.3796 16.8275C82.9973 16.162 82.3284 15.7817 81.564 15.7817C80.7995 15.7817 80.1306 16.162 79.7483 16.8275C79.3661 17.3979 79.175 18.1584 79.175 18.919C79.175 19.7746 79.3661 20.4401 79.7483 21.0106C80.1306 21.6761 80.7995 22.0563 81.564 22.0563C82.3284 22.0563 82.9018 21.6761 83.3796 21.0106C83.7618 20.4401 83.9529 19.6796 83.9529 18.919Z" fill="white"/>
<path d="M92.4594 16.1619C92.2683 16.1619 92.0772 16.0669 91.7905 16.0669C91.1216 16.0669 90.5483 16.3521 90.166 16.8274C89.8793 17.3028 89.6882 17.8732 89.6882 18.5387V23.1972H87.6815V17.1126C87.6815 16.0669 87.6815 15.2112 87.5859 14.3556H89.306L89.4015 16.0669H89.4971C89.6882 15.4965 90.0705 15.0211 90.4527 14.6408C90.9305 14.3556 91.4083 14.1655 91.8861 14.1655C92.0772 14.1655 92.2683 14.1655 92.3639 14.1655V16.1619H92.4594Z" fill="white"/>
<path d="M101.25 18.4437C101.25 18.8239 101.25 19.1092 101.154 19.2993H95.2295C95.2295 20.1549 95.5162 20.8204 96.0896 21.2958C96.5673 21.6761 97.2363 21.9613 98.0007 21.9613C98.8608 21.9613 99.7208 21.8662 100.39 21.581L100.676 22.912C99.8163 23.2923 98.8608 23.4824 97.714 23.4824C96.3762 23.4824 95.2295 23.1021 94.4651 22.2465C93.7006 21.4859 93.3184 20.3451 93.3184 19.0141C93.3184 17.6831 93.7006 16.5422 94.3695 15.6866C95.134 14.7359 96.1851 14.2606 97.5229 14.2606C98.7652 14.2606 99.8163 14.7359 100.39 15.6866C101.059 16.4472 101.25 17.3979 101.25 18.4437ZM99.4341 17.9683C99.4341 17.3979 99.3386 16.9225 99.0519 16.4472C98.6696 15.8768 98.1918 15.5915 97.5229 15.5915C96.854 15.5915 96.3762 15.8768 95.994 16.3521C95.7073 16.7324 95.5162 17.3028 95.4206 17.8732H99.4341V17.9683Z" fill="white"/>
<path d="M33.594 3.51764C33.594 4.56341 33.3074 5.41905 32.6385 5.98947C32.0651 6.46482 31.2051 6.75004 30.0584 6.75004C29.485 6.75004 29.0072 6.75003 28.625 6.65496V0.760598C29.1028 0.665528 29.6761 0.665527 30.3451 0.665527C31.3962 0.665527 32.1607 0.855669 32.734 1.33102C33.2118 1.80637 33.594 2.56694 33.594 3.51764ZM32.5429 3.51764C32.5429 2.85215 32.3518 2.28173 31.9696 1.90144C31.5873 1.52116 31.014 1.33102 30.3451 1.33102C30.0584 1.33102 29.7717 1.33102 29.5806 1.42609V5.8944C29.6761 5.8944 29.9628 5.8944 30.2495 5.8944C31.014 5.8944 31.5873 5.70426 31.9696 5.32398C32.3518 4.9437 32.5429 4.2782 32.5429 3.51764Z" fill="white"/>
<path d="M38.9466 4.46827C38.9466 5.13377 38.7555 5.70419 38.3733 6.08447C37.991 6.55982 37.4177 6.74997 36.7488 6.74997C36.0799 6.74997 35.6021 6.55982 35.2198 6.08447C34.8376 5.70419 34.6465 5.13377 34.6465 4.46827C34.6465 3.80278 34.8376 3.23236 35.2198 2.85208C35.6021 2.37673 36.1754 2.18658 36.8443 2.18658C37.5132 2.18658 37.991 2.37673 38.3733 2.85208C38.7555 3.23236 38.9466 3.80278 38.9466 4.46827ZM37.991 4.46827C37.991 4.08799 37.8955 3.70771 37.7044 3.4225C37.5132 3.04222 37.2266 2.94715 36.8443 2.94715C36.4621 2.94715 36.1754 3.13729 35.9843 3.4225C35.7932 3.70771 35.6976 4.08799 35.6976 4.46827C35.6976 4.84856 35.7932 5.22884 35.9843 5.51405C36.1754 5.89433 36.4621 5.9894 36.8443 5.9894C37.2266 5.9894 37.5132 5.79926 37.7044 5.41898C37.8955 5.22884 37.991 4.84856 37.991 4.46827Z" fill="white"/>
<path d="M46.3028 2.28168L44.965 6.65492H44.105L43.5316 4.75351C43.3405 4.27816 43.2449 3.8028 43.1494 3.32745C43.0538 3.8028 42.9583 4.27816 42.7672 4.75351L42.1938 6.65492H41.3338L39.9004 2.28168H40.856L41.3338 4.37323C41.4293 4.84858 41.5249 5.32393 41.6204 5.79928C41.716 5.419 41.8116 4.94365 42.0027 4.37323L42.576 2.28168H43.3405L43.9139 4.27816C44.105 4.75351 44.2005 5.22886 44.2961 5.70421C44.3917 5.22886 44.4872 4.75351 44.5828 4.27816L45.1561 2.28168H46.3028Z" fill="white"/>
<path d="M51.2737 6.65493H50.3181V4.1831C50.3181 3.42254 50.0314 3.04226 49.458 3.04226C49.1714 3.04226 48.9803 3.13733 48.7891 3.32747C48.598 3.51761 48.5025 3.80282 48.5025 4.08803V6.65493H47.5469V3.51761C47.5469 3.13733 47.5469 2.75705 47.5469 2.28169H48.4069V2.94719C48.5025 2.75705 48.6936 2.56691 48.8847 2.37677C49.1714 2.18662 49.4581 2.09155 49.7447 2.09155C50.127 2.09155 50.5092 2.18662 50.7959 2.47184C51.1781 2.75705 51.2737 3.2324 51.2737 3.89789V6.65493Z" fill="white"/>
<path d="M53.9478 6.65487H52.9922V0.285156H53.9478V6.65487Z" fill="white"/>
<path d="M59.683 4.46827C59.683 5.13377 59.4918 5.70419 59.1096 6.08447C58.7274 6.55982 58.154 6.74997 57.4851 6.74997C56.8162 6.74997 56.3384 6.55982 55.9562 6.08447C55.5739 5.70419 55.3828 5.13377 55.3828 4.46827C55.3828 3.80278 55.5739 3.23236 55.9562 2.85208C56.3384 2.4718 56.9117 2.18658 57.5807 2.18658C58.2496 2.18658 58.7274 2.37673 59.1096 2.85208C59.4918 3.23236 59.683 3.80278 59.683 4.46827ZM58.7274 4.46827C58.7274 4.08799 58.6318 3.70771 58.4407 3.4225C58.2496 3.04222 57.9629 2.94715 57.5807 2.94715C57.1984 2.94715 56.9118 3.13729 56.7206 3.4225C56.5295 3.70771 56.434 4.08799 56.434 4.46827C56.434 4.84856 56.5295 5.22884 56.7206 5.51405C56.9118 5.89433 57.1984 5.9894 57.5807 5.9894C57.9629 5.9894 58.2496 5.79926 58.4407 5.41898C58.6318 5.22884 58.7274 4.84856 58.7274 4.46827Z" fill="white"/>
<path d="M64.3638 6.65489H63.5038L63.4082 6.17954C63.1215 6.55982 62.6437 6.74997 62.1659 6.74997C61.7837 6.74997 61.4015 6.65489 61.2104 6.36968C61.0192 6.08447 60.8281 5.79926 60.8281 5.51405C60.8281 4.94363 61.0192 4.56335 61.497 4.27813C61.9748 3.99292 62.5482 3.89785 63.4082 3.89785V3.80278C63.4082 3.23236 63.1215 2.94715 62.5482 2.94715C62.0704 2.94715 61.7837 3.04222 61.4015 3.23236L61.2104 2.56687C61.5926 2.28165 62.0704 2.18658 62.7393 2.18658C63.886 2.18658 64.4594 2.75701 64.4594 3.99292V5.60912C64.3638 6.08447 64.3638 6.36968 64.3638 6.65489ZM63.4082 5.13377V4.46827C62.3571 4.46827 61.7837 4.75349 61.7837 5.32391C61.7837 5.51405 61.8793 5.70419 61.9748 5.79926C62.0704 5.89433 62.2615 5.9894 62.4526 5.9894C62.6437 5.9894 62.8349 5.89433 63.026 5.79926C63.2171 5.70419 63.3127 5.51405 63.4082 5.32391C63.4082 5.32391 63.4082 5.22884 63.4082 5.13377Z" fill="white"/>
<path d="M69.9059 6.65496H69.0459V5.98946C68.7592 6.55989 68.2814 6.75003 67.6125 6.75003C67.0391 6.75003 66.6569 6.55989 66.2747 6.1796C65.8924 5.79932 65.7969 5.2289 65.7969 4.56341C65.7969 3.89792 65.988 3.32749 66.3702 2.85214C66.7525 2.47186 67.2303 2.28172 67.708 2.28172C68.2814 2.28172 68.6636 2.47186 68.9503 2.85214V0.38031H69.9059V5.51411C69.9059 5.89439 69.9059 6.27467 69.9059 6.65496ZM68.9503 4.84862V4.08806C68.9503 3.99299 68.9503 3.89792 68.9503 3.80285C68.8547 3.6127 68.7592 3.42256 68.5681 3.23242C68.377 3.04228 68.1858 3.04228 67.8992 3.04228C67.5169 3.04228 67.2303 3.23242 67.0391 3.51763C66.848 3.80284 66.7525 4.18313 66.7525 4.65848C66.7525 5.13383 66.848 5.41904 67.0391 5.70425C67.2303 5.98947 67.5169 6.1796 67.8992 6.1796C68.1858 6.1796 68.4725 6.08454 68.6636 5.79932C68.8548 5.41904 68.9503 5.13383 68.9503 4.84862Z" fill="white"/>
<path d="M78.2201 4.46827C78.2201 5.13377 78.0289 5.70419 77.6467 6.08447C77.2645 6.55982 76.6911 6.74997 76.0222 6.74997C75.3533 6.74997 74.8755 6.55982 74.4933 6.08447C74.111 5.70419 73.9199 5.13377 73.9199 4.46827C73.9199 3.80278 74.111 3.23236 74.4933 2.85208C74.8755 2.37673 75.4489 2.18658 76.1178 2.18658C76.7867 2.18658 77.2645 2.37673 77.6467 2.85208C78.0289 3.23236 78.2201 3.80278 78.2201 4.46827ZM77.1689 4.46827C77.1689 4.08799 77.0733 3.70771 76.8822 3.4225C76.6911 3.04222 76.4044 2.94715 76.0222 2.94715C75.64 2.94715 75.3533 3.13729 75.1622 3.4225C74.9711 3.70771 74.8755 4.08799 74.8755 4.46827C74.8755 4.84856 74.9711 5.22884 75.1622 5.51405C75.3533 5.89433 75.64 5.9894 76.0222 5.9894C76.4044 5.9894 76.6911 5.79926 76.8822 5.41898C77.0733 5.22884 77.1689 4.84856 77.1689 4.46827Z" fill="white"/>
<path d="M83.4768 6.65493H82.5212V4.1831C82.5212 3.42254 82.2345 3.04226 81.6612 3.04226C81.3745 3.04226 81.1834 3.13733 80.9923 3.32747C80.8011 3.51761 80.7056 3.80282 80.7056 4.08803V6.65493H79.75V3.51761C79.75 3.13733 79.75 2.75705 79.75 2.28169H80.61V2.94719C80.7056 2.75705 80.8967 2.56691 81.0878 2.37677C81.3745 2.18662 81.6612 2.09155 81.9479 2.09155C82.3301 2.09155 82.7123 2.18662 82.999 2.47184C83.3812 2.75705 83.4768 3.2324 83.4768 3.89789V6.65493Z" fill="white"/>
<path d="M89.9746 3.04224H88.9235V5.13379C88.9235 5.70421 89.1146 5.89435 89.4968 5.89435C89.688 5.89435 89.7835 5.89435 89.9746 5.89435V6.65491C89.7835 6.74998 89.4968 6.74999 89.2102 6.74999C88.8279 6.74999 88.5412 6.65491 88.3501 6.3697C88.159 6.17956 88.0635 5.70421 88.0635 5.22886V3.04224H87.3945V2.28168H88.0635V1.52111L89.019 1.2359V2.28168H90.0702V3.04224H89.9746Z" fill="white"/>
<path d="M95.135 6.65487H94.1794V4.18304C94.1794 3.42248 93.8927 3.0422 93.3194 3.0422C92.8416 3.0422 92.5549 3.23234 92.3638 3.70769C92.3638 3.80276 92.3638 3.89783 92.3638 4.08797V6.65487H91.4082V0.285156H92.3638V2.94713C92.6505 2.47178 93.1283 2.18656 93.7016 2.18656C94.0838 2.18656 94.4661 2.28163 94.6572 2.56685C94.9439 2.85206 95.135 3.42248 95.135 3.9929V6.65487Z" fill="white"/>
<path d="M100.391 4.27816C100.391 4.4683 100.391 4.56337 100.391 4.75351H97.5239C97.5239 5.22886 97.7151 5.51407 97.9062 5.70421C98.1929 5.89435 98.4795 5.98942 98.8618 5.98942C99.3396 5.98942 99.7218 5.89435 100.008 5.79928L100.2 6.46478C99.8174 6.65492 99.3396 6.74999 98.7662 6.74999C98.0973 6.74999 97.524 6.55984 97.1417 6.17956C96.7595 5.79928 96.5684 5.22886 96.5684 4.56337C96.5684 3.89787 96.7595 3.32745 97.1417 2.94717C97.524 2.47182 98.0017 2.28168 98.6706 2.28168C99.3396 2.28168 99.8174 2.47182 100.104 2.94717C100.295 3.23238 100.391 3.70773 100.391 4.27816ZM99.5307 3.99294C99.5307 3.70773 99.4351 3.42252 99.3396 3.23238C99.1484 2.94717 98.9573 2.8521 98.5751 2.8521C98.2884 2.8521 98.0017 2.94717 97.8106 3.23238C97.6195 3.42252 97.5239 3.70773 97.5239 3.99294H99.5307Z" fill="white"/>
</svg>
