<svg width="90" height="102" viewBox="0 0 90 102" fill="none" xmlns="http://www.w3.org/2000/svg">
<path d="M55.1722 95.2377L54.9148 94.8091L55.1722 95.2377ZM46.7657 101L46.3992 100.66C46.2538 100.817 46.2241 101.048 46.3253 101.237C46.4265 101.425 46.6363 101.528 46.8473 101.493L46.7657 101ZM1.08267 3.08588C37.8695 -3.08153 68.8852 9.42617 81.9063 28.6118C88.4071 38.19 90.4351 49.4394 86.4828 60.9233C82.5254 72.4221 72.5493 84.2188 54.9148 94.8091L55.4296 95.6664C73.1907 85.0001 83.37 73.0407 87.4284 61.2488C91.4918 49.4421 89.3959 37.8663 82.7338 28.0502C69.4292 8.44705 37.9632 -4.1112 0.917327 2.09965L1.08267 3.08588ZM54.9148 94.8091C51.842 96.6544 50.8676 96.9197 50.0138 97.3537C49.1182 97.8088 48.4988 98.3979 46.3992 100.66L47.1322 101.34C49.2665 99.0407 49.7618 98.6034 50.4668 98.2451C51.2135 97.8657 52.3254 97.5305 55.4296 95.6664L54.9148 94.8091ZM47.0927 101.378L59.3917 90.7477L58.7378 89.9911L46.4387 100.622L47.0927 101.378ZM46.8473 101.493L74.9142 96.8518L74.7511 95.8652L46.6841 100.507L46.8473 101.493Z" fill="white"/>
</svg>
