<svg width="211" height="144" viewBox="0 0 211 144" fill="none" xmlns="http://www.w3.org/2000/svg">
<path d="M170.121 134.788L169.543 133.971L170.121 134.788ZM162 142.717L161.162 142.171C160.939 142.514 160.947 142.957 161.182 143.292C161.417 143.626 161.831 143.784 162.229 143.691L162 142.717ZM0.737216 9.47143C65.0157 -6.22449 135.354 5.35553 175.481 30.7093C195.55 43.3896 207.861 59.3765 208.379 76.9417C208.898 94.4966 197.649 114.074 169.543 133.971L170.698 135.604C199.032 115.545 210.926 95.4204 210.379 76.8827C209.832 58.3552 196.871 41.8585 176.549 29.0185C135.896 3.33171 64.9843 -8.2756 0.262784 7.52852L0.737216 9.47143ZM169.543 133.971C167.959 135.092 166.922 135.753 166.19 136.212C165.486 136.654 164.965 136.967 164.53 137.35C164.067 137.756 163.721 138.218 163.259 138.916C162.813 139.59 162.16 140.64 161.162 142.171L162.838 143.263C163.885 141.656 164.468 140.712 164.926 140.02C165.369 139.352 165.595 139.076 165.85 138.852C166.132 138.604 166.473 138.396 167.253 137.906C168.006 137.434 169.076 136.752 170.698 135.604L169.543 133.971ZM162.776 143.348L174.657 128.719L173.105 127.458L161.224 142.087L162.776 143.348ZM162.229 143.691L189.342 137.303L188.883 135.357L161.771 141.744L162.229 143.691Z" fill="white"/>
</svg>
