<svg width="133" height="58" viewBox="0 0 133 58" fill="none" xmlns="http://www.w3.org/2000/svg">
<path d="M107.37 53.8592L107.166 53.4027L107.37 53.8592ZM102.277 57L101.929 56.641C101.773 56.7922 101.733 57.0267 101.829 57.2214C101.925 57.4162 102.136 57.5265 102.351 57.4946L102.277 57ZM1.07622 4.33187C41.457 -1.89618 85.6527 2.69593 110.881 12.7642C117.185 15.2799 122.276 18.1266 125.824 21.2097C129.373 24.2944 131.331 27.5727 131.49 30.9585C131.647 34.3383 130.018 37.9605 126.094 41.7506C122.168 45.5422 115.988 49.4578 107.166 53.4027L107.574 54.3156C116.448 50.3473 122.745 46.3749 126.788 42.4699C130.833 38.5633 132.665 34.68 132.488 30.9119C132.313 27.1497 130.142 23.6373 126.48 20.4549C122.816 17.2709 117.612 14.3738 111.252 11.8354C85.8223 1.6869 41.4395 -2.9053 0.923785 3.34355L1.07622 4.33187ZM107.166 53.4027C106.169 53.8484 105.516 54.1112 105.054 54.294C104.607 54.4714 104.296 54.5895 104.035 54.7343C103.754 54.89 103.539 55.0708 103.245 55.3515C102.965 55.6178 102.553 56.0367 101.929 56.641L102.625 57.359C103.284 56.7202 103.647 56.3496 103.935 56.0749C104.208 55.8146 104.351 55.7027 104.52 55.6087C104.709 55.5038 104.939 55.4152 105.423 55.2236C105.893 55.0374 106.56 54.7689 107.574 54.3156L107.166 53.4027ZM102.584 57.3947L110.035 51.6003L109.421 50.8109L101.97 56.6053L102.584 57.3947ZM102.351 57.4946L119.353 54.9646L119.206 53.9755L102.204 56.5054L102.351 57.4946Z" fill="white"/>
</svg>
