<svg width="109" height="27" viewBox="0 0 109 27" fill="none" xmlns="http://www.w3.org/2000/svg">
<path fill-rule="evenodd" clip-rule="evenodd" d="M0 12.0866V1.85199C0 1.26715 0.497717 0.779785 0.995434 0.779785C1.49315 0.779785 1.69224 0.877257 1.99087 1.0722L21.2027 11.4043C21.6009 11.5993 21.8 11.8917 21.8 12.1841C21.8 12.4765 21.6009 12.769 21.2027 12.9639L1.99087 23.296C1.79178 23.3935 1.49315 23.5885 0.995434 23.5885C0.497717 23.5885 0 23.1011 0 22.5163V12.0866Z" fill="url(#paint0_linear_162_398)"/>
<path fill-rule="evenodd" clip-rule="evenodd" d="M12.4434 12.1841L0.796875 0.779785C0.896418 0.779785 0.896415 0.779785 0.995959 0.779785C1.49368 0.779785 1.69276 0.877257 1.99139 1.0722L16.1266 8.67509L12.4434 12.1841Z" fill="url(#paint1_linear_162_398)"/>
<path fill-rule="evenodd" clip-rule="evenodd" d="M16.0269 15.5957L12.4434 12.0867L16.1265 8.48016L21.2032 11.2094C21.6014 11.4044 21.8004 11.6968 21.8004 11.9892C21.8004 12.2816 21.6014 12.574 21.2032 12.769L16.0269 15.5957Z" fill="url(#paint2_linear_162_398)"/>
<path fill-rule="evenodd" clip-rule="evenodd" d="M0.896484 23.3935L12.4435 12.0866L16.0271 15.5956L1.99147 23.1011C1.69284 23.296 1.49374 23.3935 0.896484 23.3935C0.996028 23.3935 0.996028 23.3935 0.896484 23.3935Z" fill="url(#paint3_linear_162_398)"/>
<path fill-rule="evenodd" clip-rule="evenodd" d="M61.0198 26.0252C60.522 25.6353 60.1239 24.953 59.9248 24.5631L61.5175 23.8808C61.617 24.0758 61.8161 24.3682 62.0152 24.6606C62.4134 25.0505 63.0106 25.4404 63.6079 25.4404C64.2052 25.4404 64.9019 25.148 65.3001 24.6606C65.5987 24.1733 65.7978 23.6859 65.7978 23.0036V22.4187C64.6033 23.8808 62.1147 23.6859 60.7211 22.1263C59.228 20.5668 59.228 17.935 60.7211 16.3754C62.2143 14.9133 64.4042 14.7184 65.6983 16.083V15.4007H67.3905V22.7112C67.3905 24.5631 66.6937 25.6353 65.7978 26.3177C65.2006 26.805 64.3047 27 63.5083 27C62.6125 26.9025 61.7166 26.6101 61.0198 26.0252ZM102.728 26.4151L104.421 22.5162L101.434 15.7906H103.127L105.217 20.5668L107.307 15.7906H109L104.421 26.4151H102.728ZM94.6654 22.7112C94.1677 22.2238 93.9686 21.5415 93.9686 20.8592C93.9686 20.2743 94.1677 19.6895 94.5659 19.2996C95.2627 18.6173 96.2581 18.3249 97.3531 18.3249C98.0499 18.3249 98.6471 18.4224 99.1449 18.7148C99.1449 17.5451 98.1494 17.0577 97.3531 17.0577C96.6563 17.0577 95.9595 17.4476 95.6608 18.1299L94.1677 17.5451C94.4663 16.8628 95.2627 15.5956 97.2535 15.5956C98.249 15.5956 99.2444 15.8881 99.8417 16.5704C100.439 17.2527 100.638 18.0325 100.638 19.1047V23.1985H98.9458V22.5162C98.7467 22.8086 98.3485 23.0036 98.0499 23.1985C97.6517 23.3935 97.154 23.4909 96.6563 23.4909C96.059 23.3935 95.1631 23.1985 94.6654 22.7112ZM41.6088 19.2021C41.6088 17.2527 43.1019 15.1083 45.7896 15.1083C48.3777 15.1083 49.9704 17.2527 49.9704 19.2021C49.9704 21.1516 48.4773 23.296 45.7896 23.296C43.1019 23.296 41.6088 21.1516 41.6088 19.2021ZM50.5677 19.2021C50.5677 17.2527 52.0608 15.1083 54.7485 15.1083C57.3366 15.1083 58.9293 17.2527 58.9293 19.2021C58.9293 21.1516 57.4362 23.296 54.7485 23.296C52.1604 23.296 50.5677 21.1516 50.5677 19.2021ZM30.3604 21.3465C27.8718 18.9097 27.9713 14.9133 30.4599 12.379C31.754 11.1119 33.3467 10.527 35.0389 10.527C36.6316 10.527 38.2243 11.1119 39.4188 12.2816L38.2243 13.5487C36.4325 11.7942 33.5458 11.8917 31.8535 13.6462C30.0618 15.4982 30.0618 18.3249 31.8535 20.1769C33.6453 22.0288 36.6316 22.1263 38.4234 20.2743C39.0207 19.6895 39.2197 18.9097 39.3193 18.1299H35.1385V16.3754H41.0115C41.1111 16.7653 41.1111 17.2527 41.1111 17.74C41.1111 19.2021 40.5138 20.6642 39.5184 21.639C38.4234 22.7112 36.8307 23.296 35.238 23.296C33.4462 23.1985 31.6545 22.6137 30.3604 21.3465ZM72.4673 22.0288C70.9741 20.4693 70.9741 17.8375 72.4673 16.1805C73.9604 14.6209 76.449 14.6209 77.8426 16.1805C78.3403 16.6678 78.6389 17.3501 78.9376 18.0325L73.4627 20.2743C73.7613 20.9566 74.4581 21.5415 75.4536 21.5415C76.3494 21.5415 76.9467 21.2491 77.544 20.3718L79.0371 21.3465C78.838 21.5415 78.6389 21.7364 78.5394 21.9314C76.8472 23.5884 73.9604 23.5884 72.4673 22.0288ZM82.8198 23.1985V12.379H86.4033C88.4937 12.379 90.186 13.8411 90.186 15.5956C90.186 17.3501 88.6928 18.8122 86.8015 18.8122H84.6115V23.1011H82.8198V23.1985ZM91.1814 23.1985V12.379H92.8736V23.1985H91.1814ZM68.6846 23.0036V10.9169H70.4764V23.0036H68.6846ZM99.0453 19.9819C98.6471 19.6895 98.0499 19.592 97.4526 19.592C96.2581 19.592 95.5613 20.1769 95.5613 20.8592C95.5613 21.5415 96.2581 21.9314 96.9549 21.9314C97.9504 21.9314 99.0453 21.1516 99.0453 19.9819ZM48.0791 19.2021C48.0791 18.0325 47.2828 16.7653 45.7896 16.7653C44.2965 16.7653 43.5001 18.0325 43.5001 19.2021C43.5001 20.3718 44.2965 21.639 45.7896 21.639C47.1832 21.639 48.0791 20.3718 48.0791 19.2021ZM57.038 19.2021C57.038 18.0325 56.2417 16.7653 54.7485 16.7653C53.2554 16.7653 52.459 18.0325 52.459 19.2021C52.459 20.3718 53.2554 21.639 54.7485 21.639C56.2417 21.639 57.038 20.3718 57.038 19.2021ZM65.8974 19.8844C65.8974 19.787 65.8974 19.6895 65.9969 19.592C65.9969 19.4946 65.9969 19.2996 65.9969 19.2021C65.9969 19.1047 65.9969 18.9097 65.9969 18.8122V18.7148C65.9969 18.6173 65.8974 18.4223 65.8974 18.3249C65.5987 17.3501 64.7029 16.6678 63.807 16.6678C62.6124 16.6678 61.617 17.8375 61.617 19.1047C61.617 20.4693 62.6124 21.5415 63.9065 21.5415C64.7029 21.639 65.4992 20.9566 65.8974 19.8844ZM73.164 19.0072L76.8472 17.4476C76.449 16.7653 75.8517 16.5704 75.354 16.5704C73.8609 16.6678 72.9649 18.2274 73.164 19.0072ZM88.3942 15.6931C88.3942 14.7184 87.5979 14.0361 86.5029 14.0361H84.512V17.4476H86.6024C87.5978 17.4476 88.3942 16.6678 88.3942 15.6931Z" fill="white"/>
<path d="M28.9668 2.82672C28.9668 1.0722 30.2609 0 31.8536 0C32.9485 0 33.6453 0.487364 34.1431 1.16967L33.3467 1.65704C33.0481 1.26715 32.5504 0.97473 31.8536 0.97473C30.7586 0.97473 29.9622 1.75451 29.9622 2.92419C29.9622 4.09386 30.7586 4.87365 31.8536 4.87365C32.4508 4.87365 32.9485 4.58123 33.1476 4.38628V3.50903H31.5549V2.63177H34.2426V4.6787C33.7449 5.26354 32.9485 5.65343 31.9531 5.65343C30.2609 5.65343 28.9668 4.48376 28.9668 2.82672Z" fill="white"/>
<path d="M35.4375 5.55596V0.0974731H39.2202V0.974731H36.3334V2.33935H39.1206V3.21661H36.3334V4.77618H39.2202V5.65343L35.4375 5.55596Z" fill="white"/>
<path d="M42.0067 5.55596V0.974731H40.3145V0.0974731H44.6944V0.974731H43.0021V5.55596H42.0067Z" fill="white"/>
<path d="M48.0801 5.55596V0.0974731H49.0755V5.55596H48.0801Z" fill="white"/>
<path d="M51.7625 5.55596V0.974731H50.0703V0.0974731H54.4502V0.974731H52.758V5.55596H51.7625Z" fill="white"/>
<path d="M57.6348 2.82672C57.6348 1.16968 58.8293 0 60.5215 0C62.2138 0 63.4083 1.16968 63.4083 2.82672C63.4083 4.48376 62.2138 5.65343 60.5215 5.65343C58.8293 5.65343 57.6348 4.38628 57.6348 2.82672ZM62.3133 2.82672C62.3133 1.65704 61.6165 0.877256 60.422 0.877256C59.327 0.877256 58.5307 1.75451 58.5307 2.82672C58.5307 3.99639 59.2275 4.77617 60.422 4.77617C61.6165 4.77617 62.3133 3.89892 62.3133 2.82672Z" fill="white"/>
<path d="M68.3861 5.55596L65.4993 1.65704V5.55596H64.5039V0.0974731H65.4993L68.3861 3.89892V0.0974731H69.3815V5.55596H68.3861Z" fill="white"/>
<defs>
<linearGradient id="paint0_linear_162_398" x1="6.43787" y1="-0.610569" x2="11.7934" y2="21.8511" gradientUnits="userSpaceOnUse">
<stop stop-color="#F8F8F8"/>
<stop offset="1" stop-color="#C5F2F2"/>
</linearGradient>
<linearGradient id="paint1_linear_162_398" x1="-0.357131" y1="2.57699" x2="14.6832" y2="10.8806" gradientUnits="userSpaceOnUse">
<stop stop-color="white"/>
<stop offset="1" stop-color="#FBFFE3"/>
</linearGradient>
<linearGradient id="paint2_linear_162_398" x1="17.1163" y1="16.0052" x2="17.1163" y2="8.25763" gradientUnits="userSpaceOnUse">
<stop stop-color="#F5ECDF"/>
<stop offset="1" stop-color="#FDEEE7"/>
</linearGradient>
<linearGradient id="paint3_linear_162_398" x1="2.58345" y1="25.4103" x2="14.3237" y2="13.2083" gradientUnits="userSpaceOnUse">
<stop stop-color="white"/>
<stop offset="1" stop-color="#FEDCDE"/>
</linearGradient>
</defs>
</svg>
