<svg width="44" height="48" viewBox="0 0 44 48" fill="none" xmlns="http://www.w3.org/2000/svg">
<path fill-rule="evenodd" clip-rule="evenodd" d="M34.617 45.2981C34.6816 45.1716 34.7448 45.0581 34.8052 44.9494C35.0173 44.5683 35.1967 44.2458 35.2947 43.6238C35.4558 42.6006 35.1953 41.5651 34.6445 40.7643C34.4985 40.5521 34.2916 40.3097 34.103 40.1171C33.8164 39.8244 33.2013 39.4557 32.6539 39.2702C31.3309 38.8219 30.3319 39.1934 28.9442 39.7093C27.9616 40.0746 26.7842 40.5124 25.1589 40.783C17.257 42.0983 9.85194 38.4018 5.87824 32.2997C4.64964 30.413 3.66796 28.2042 3.15359 25.6204C2.00498 19.8504 3.65385 14.5586 6.37099 10.7728C12.3771 2.40442 24.0944 0.235732 32.7724 6.05794C40.084 10.9634 43.3627 20.8764 39.7901 29.1421C39.5392 29.7226 39.3296 30.1955 39.0398 30.76C38.9722 30.8916 38.8695 31.0641 38.7599 31.2482C38.5416 31.6147 38.2958 32.0275 38.2444 32.2568L40.5727 33.6957C40.6793 33.4389 40.8889 33.0954 41.0985 32.7519C41.2383 32.5227 41.3782 32.2936 41.4873 32.0904C46.491 22.772 43.712 11.1699 35.8483 4.88746C32.1592 1.94018 26.8796 -0.386522 20.4927 0.0536534C16.4491 0.332345 12.4361 1.78528 9.33504 4.01161C8.05246 4.93242 7.74754 5.2154 6.68254 6.20379L6.61163 6.26959C5.09669 7.67538 3.4866 9.78791 2.32844 12.1116C-4.0194 24.8477 3.18285 39.9328 17.0104 43.2394C19.897 43.9296 23.1459 44.0047 26.1479 43.4226C27.5344 43.1538 28.8371 42.7771 30.0751 42.2878C30.1819 42.2456 30.2912 42.1961 30.4024 42.1457C30.9037 41.9188 31.4453 41.6735 31.9808 41.9934C32.7068 42.427 32.5661 42.9696 32.3564 43.7544C32.6414 43.8912 33.0591 44.2095 33.4723 44.5246C33.915 44.862 34.3527 45.1957 34.617 45.2981ZM36.6787 46.4866C37.0217 46.7867 38.6292 47.8961 38.992 48C39.0608 47.8178 39.1867 47.6055 39.3199 47.3807C39.447 47.1663 39.5808 46.9406 39.6782 46.719C42.3704 40.5913 37.9152 34.1713 31.7566 33.9526C29.8893 33.8863 28.7248 34.3349 27.4811 34.814C26.7942 35.0786 26.0832 35.3525 25.2162 35.5542C15.7066 37.7659 7.33095 30.0418 7.95676 20.9718C8.60282 11.608 17.9554 5.73737 26.5359 8.64237C34.6264 11.3815 38.3898 20.5993 34.6064 28.1595C34.5323 28.3076 34.4288 28.4844 34.3233 28.6648C34.1402 28.9775 33.951 29.3008 33.8979 29.5035C34.2613 29.6669 34.6389 29.9309 35.0169 30.1952L35.017 30.1952L35.017 30.1952C35.4137 30.4725 35.8108 30.7502 36.1926 30.9122C36.5687 30.5771 37.4137 28.7688 37.6851 28.068C38.1034 26.9879 38.4495 25.8396 38.6486 24.5984C39.0667 21.991 38.8458 19.2416 38.083 16.8747C36.6335 12.3771 33.706 9.19565 30.1273 7.18914C25.9601 4.85266 20.6082 4.46 15.8317 6.29404C11.8468 7.82416 8.40951 11.0639 6.71295 14.8252C2.65966 23.8111 6.79277 34.0456 16.0752 37.6231C19.5867 38.9765 23.7303 39.0293 27.4038 37.8031C27.7672 37.6818 28.0993 37.5465 28.4248 37.4138L28.4249 37.4138C29.1566 37.1156 29.8546 36.8312 30.7981 36.751C35.4121 36.3589 38.7563 40.6576 37.3763 44.9784C37.2671 45.3202 37.1108 45.6091 36.9685 45.8725L36.9684 45.8725C36.8511 46.0895 36.7432 46.2891 36.6787 46.4866ZM10.7332 18.8491C10.7254 18.8472 10.7175 18.8454 10.7109 18.8412C11.1366 16.3771 13.4746 13.4464 15.637 12.1041C18.5063 10.3229 21.2192 9.84354 25.0398 10.6206L24.3005 13.2605C24.0109 13.2481 23.7116 13.1962 23.4018 13.1425C23.0545 13.0823 22.694 13.0199 22.319 13.0081C18.8112 12.8978 15.4157 14.912 13.9846 17.9632C13.8626 18.2233 13.7667 18.4921 13.6714 18.7595C13.5758 19.0276 13.4807 19.2943 13.3602 19.5495L10.7681 18.8727C10.7618 18.8558 10.7475 18.8524 10.7332 18.8491Z" fill="white"/>
</svg>
