<svg width="114" height="36" viewBox="0 0 114 36" fill="none" xmlns="http://www.w3.org/2000/svg">
<path d="M37.2969 20.3253L36.8867 19.4225L37.2969 20.3253ZM72.6604 20.2622L71.6588 20.4625L71.6736 20.5092L71.6934 20.5547L72.6604 20.2622ZM55.6448 19.7229L56.4294 20.4044L56.4386 20.3955L56.4476 20.3863L55.6448 19.7229ZM97.0093 4.41196L96.3679 5.11826L97.0093 4.41196ZM110.977 10.5619L111.404 11.4591L113.065 10.8958L111.584 9.82985L110.977 10.5619ZM104.421 11.7423C103.895 11.9208 103.659 12.4671 103.895 12.9627C104.13 13.4583 104.748 13.7154 105.274 13.5369L104.421 11.7423ZM2.69126 16.9774C4.26283 9.22985 9.63655 5.64543 14.9792 4.61359C17.6719 4.09354 20.3484 4.22481 22.5218 4.79956C24.7316 5.38394 26.2482 6.37406 26.889 7.43337L28.6997 6.61007C27.6412 4.86042 25.4538 3.62956 22.9605 2.97021C20.4307 2.30123 17.405 2.16602 14.4019 2.74602C8.35279 3.91429 2.36057 7.99609 0.636561 16.4951L2.69126 16.9774ZM26.889 7.43337C27.5421 8.51282 27.5446 10.0938 27.2364 12.0476C27.0864 12.9984 26.8792 13.9568 26.6865 14.9288C26.4975 15.8825 26.3231 16.8469 26.264 17.7369C26.2057 18.6148 26.2509 19.5178 26.5785 20.3157C26.9278 21.1663 27.5877 21.8651 28.6241 22.2593C29.5968 22.6294 30.8077 22.6954 32.2495 22.5269C33.7064 22.3567 35.5022 21.934 37.707 21.228L36.8867 19.4225C34.7491 20.1069 33.0972 20.4868 31.8323 20.6346C30.5522 20.7842 29.767 20.6839 29.3002 20.5063C28.897 20.3529 28.6739 20.1229 28.5277 19.7667C28.3598 19.3578 28.2969 18.7761 28.3488 17.9946C28.3999 17.2251 28.554 16.3555 28.7427 15.4037C28.9277 14.4702 29.1473 13.4517 29.3041 12.4575C29.6096 10.5212 29.746 8.33956 28.6997 6.61007L26.889 7.43337ZM37.707 21.228C40.8024 20.237 48.6429 17.4306 56.1686 16.2612C59.9402 15.6751 63.5092 15.5226 66.3025 16.1511C67.6866 16.4625 68.8336 16.9556 69.7206 17.6443C70.596 18.324 71.2691 19.2332 71.6588 20.4625L73.6619 20.062C73.1552 18.4636 72.2414 17.1929 71.0021 16.2306C69.7744 15.2773 68.2789 14.6661 66.6556 14.3008C63.4342 13.576 59.5288 13.7803 55.6693 14.38C47.9328 15.5822 39.8842 18.4627 36.8867 19.4225L37.707 21.228ZM71.6934 20.5547C72.6039 22.6513 72.7224 24.4481 72.3273 25.9676C71.9307 27.4932 70.9991 28.8039 69.697 29.8853C67.0718 32.0656 63.0185 33.243 59.3081 33.2844C57.4606 33.3051 55.7623 33.0426 54.4155 32.5287C53.0716 32.0158 52.1489 31.284 51.6819 30.3862C51.2181 29.4944 51.1103 28.2587 51.7851 26.5845C52.4635 24.9013 53.9101 22.8432 56.4294 20.4044L54.8602 19.0413C52.2449 21.5731 50.618 23.8254 49.8183 25.8094C49.015 27.8023 49.0244 29.5905 49.8074 31.0958C50.5872 32.5951 52.0409 33.6335 53.7371 34.2808C55.4304 34.927 57.4362 35.2146 59.4908 35.1917C63.5844 35.146 68.1274 33.862 71.1646 31.3395C72.6937 30.0695 73.8598 28.4683 74.3615 26.5384C74.8649 24.6023 74.6826 22.3997 73.6273 19.9698L71.6934 20.5547ZM56.4476 20.3863C59.7381 17.0101 66.906 10.8408 74.7527 6.72291C78.6781 4.66292 82.7084 3.15117 86.4626 2.72315C90.1942 2.29769 93.5754 2.94667 96.3679 5.11826L97.6507 3.70565C94.248 1.05946 90.1949 0.357717 86.0515 0.830109C81.9307 1.29993 77.6453 2.9346 73.6123 5.05109C65.5423 9.28614 58.2232 15.5902 54.8419 19.0595L56.4476 20.3863ZM96.3679 5.11826C99.1122 7.25237 101.171 8.67995 102.68 9.57174C103.433 10.017 104.074 10.3431 104.611 10.5564C105.118 10.7577 105.655 10.9093 106.148 10.8741C106.416 10.855 106.71 10.7777 106.961 10.5871C107.216 10.3926 107.351 10.1372 107.405 9.88978C107.503 9.44585 107.357 8.99163 107.214 8.66599C106.91 7.96883 106.303 7.15799 105.613 6.42953L104.078 7.61391C104.684 8.25333 105.11 8.86037 105.283 9.25556C105.379 9.47608 105.333 9.48666 105.357 9.3792C105.374 9.30002 105.428 9.18073 105.554 9.08449C105.676 8.99207 105.793 8.97506 105.83 8.97239C105.864 8.97001 105.73 8.97921 105.319 8.81595C104.938 8.66463 104.414 8.40393 103.719 7.99325C102.331 7.17312 100.36 5.81218 97.6507 3.70565L96.3679 5.11826ZM105.613 6.42953C105.463 6.27145 105.377 6.16949 105.334 6.11187C105.312 6.08281 105.314 6.08215 105.326 6.10349C105.329 6.10995 105.388 6.21187 105.404 6.3681C105.424 6.55444 105.381 6.9059 105.027 7.13421C104.746 7.31515 104.458 7.28563 104.399 7.27902C104.26 7.26342 104.202 7.22291 104.308 7.2705C104.657 7.42729 105.421 7.89695 106.37 8.52402C107.285 9.12879 108.285 9.82071 109.058 10.3638C109.444 10.6348 109.773 10.8677 110.005 11.0328C110.12 11.1153 110.212 11.1808 110.275 11.2255C110.306 11.2479 110.33 11.2651 110.346 11.2767C110.354 11.2824 110.36 11.2868 110.364 11.2897C110.366 11.2911 110.367 11.2922 110.368 11.2929C110.369 11.2932 110.369 11.2935 110.369 11.2937C110.37 11.2937 110.37 11.2938 110.37 11.2938C110.37 11.2939 110.37 11.2939 110.977 10.5619C111.584 9.82985 111.584 9.8298 111.584 9.82974C111.584 9.82968 111.584 9.82959 111.583 9.82948C111.583 9.82926 111.583 9.82895 111.582 9.82854C111.581 9.82772 111.579 9.82652 111.577 9.82496C111.573 9.82183 111.566 9.81723 111.558 9.81122C111.541 9.79917 111.517 9.78146 111.484 9.75855C111.42 9.71271 111.327 9.64605 111.21 9.56229C110.974 9.3948 110.642 9.15879 110.25 8.8842C109.47 8.33604 108.45 7.62996 107.509 7.00773C106.601 6.40779 105.67 5.82143 105.113 5.57093C104.992 5.5167 104.756 5.4149 104.499 5.38604C104.381 5.37279 104.049 5.34864 103.739 5.54788C103.357 5.79449 103.301 6.17719 103.326 6.40865C103.347 6.60998 103.428 6.77087 103.471 6.85111C103.524 6.94623 103.584 7.03414 103.641 7.1094C103.755 7.26041 103.904 7.43001 104.078 7.61391L105.613 6.42953ZM110.55 9.66456L104.421 11.7423L105.274 13.5369L111.404 11.4591L110.55 9.66456Z" fill="white"/>
</svg>
