<svg width="28" height="29" viewBox="0 0 28 29" fill="none" xmlns="http://www.w3.org/2000/svg">
<path fill-rule="evenodd" clip-rule="evenodd" d="M14.0293 1.56399C13.8425 0.530394 12.8533 -0.156115 11.8197 0.0306271C10.7861 0.217369 10.0996 1.20665 10.2863 2.24024L11.2293 7.45965L6.38674 2.61707C5.64405 1.87438 4.4399 1.87438 3.69721 2.61707C2.95451 3.35977 2.95451 4.56391 3.69721 5.3066L10.4817 12.0911L1.25238 15.4472C0.265291 15.8062 -0.243924 16.8973 0.115018 17.8844C0.473959 18.8715 1.56513 19.3807 2.55223 19.0218L9.82075 16.3787L5.22472 23.8287C4.67326 24.7226 4.95086 25.8943 5.84477 26.4458C6.73868 26.9973 7.91039 26.7196 8.46185 25.8257L13.169 18.1956L14.7671 27.0411C14.9539 28.0747 15.9432 28.7612 16.9768 28.5744C18.0103 28.3877 18.6969 27.3984 18.5101 26.3648L17.1329 18.7423L21.4893 23.0987C22.232 23.8414 23.4361 23.8414 24.1788 23.0987C24.9215 22.356 24.9215 21.1519 24.1788 20.4092L17.3943 13.6247L26.6236 10.2686C27.6107 9.90961 28.12 8.81843 27.761 7.83134C27.4021 6.84425 26.3109 6.33504 25.3238 6.69398L18.8013 9.06579L21.3833 4.88048C21.9348 3.98657 21.6572 2.81486 20.7632 2.2634C19.8693 1.71193 18.6976 1.98954 18.1462 2.88345L15.1462 7.74622L14.0293 1.56399Z" fill="white"/>
<path fill-rule="evenodd" clip-rule="evenodd" d="M14.0293 1.56399C13.8425 0.530394 12.8533 -0.156115 11.8197 0.0306271C10.7861 0.217369 10.0996 1.20665 10.2863 2.24024L11.2293 7.45965L6.38674 2.61707C5.64405 1.87438 4.4399 1.87438 3.69721 2.61707C2.95451 3.35977 2.95451 4.56391 3.69721 5.3066L10.4817 12.0911L1.25238 15.4472C0.265291 15.8062 -0.243924 16.8973 0.115018 17.8844C0.473959 18.8715 1.56513 19.3807 2.55223 19.0218L9.82075 16.3787L5.22472 23.8287C4.67326 24.7226 4.95086 25.8943 5.84477 26.4458C6.73868 26.9973 7.91039 26.7196 8.46185 25.8257L13.169 18.1956L14.7671 27.0411C14.9539 28.0747 15.9432 28.7612 16.9768 28.5744C18.0103 28.3877 18.6969 27.3984 18.5101 26.3648L17.1329 18.7423L21.4893 23.0987C22.232 23.8414 23.4361 23.8414 24.1788 23.0987C24.9215 22.356 24.9215 21.1519 24.1788 20.4092L17.3943 13.6247L26.6236 10.2686C27.6107 9.90961 28.12 8.81843 27.761 7.83134C27.4021 6.84425 26.3109 6.33504 25.3238 6.69398L18.8013 9.06579L21.3833 4.88048C21.9348 3.98657 21.6572 2.81486 20.7632 2.2634C19.8693 1.71193 18.6976 1.98954 18.1462 2.88345L15.1462 7.74622L14.0293 1.56399Z" fill="white"/>
<path fill-rule="evenodd" clip-rule="evenodd" d="M14.0293 1.56399C13.8425 0.530394 12.8533 -0.156115 11.8197 0.0306271C10.7861 0.217369 10.0996 1.20665 10.2863 2.24024L11.2293 7.45965L6.38674 2.61707C5.64405 1.87438 4.4399 1.87438 3.69721 2.61707C2.95451 3.35977 2.95451 4.56391 3.69721 5.3066L10.4817 12.0911L1.25238 15.4472C0.265291 15.8062 -0.243924 16.8973 0.115018 17.8844C0.473959 18.8715 1.56513 19.3807 2.55223 19.0218L9.82075 16.3787L5.22472 23.8287C4.67326 24.7226 4.95086 25.8943 5.84477 26.4458C6.73868 26.9973 7.91039 26.7196 8.46185 25.8257L13.169 18.1956L14.7671 27.0411C14.9539 28.0747 15.9432 28.7612 16.9768 28.5744C18.0103 28.3877 18.6969 27.3984 18.5101 26.3648L17.1329 18.7423L21.4893 23.0987C22.232 23.8414 23.4361 23.8414 24.1788 23.0987C24.9215 22.356 24.9215 21.1519 24.1788 20.4092L17.3943 13.6247L26.6236 10.2686C27.6107 9.90961 28.12 8.81843 27.761 7.83134C27.4021 6.84425 26.3109 6.33504 25.3238 6.69398L18.8013 9.06579L21.3833 4.88048C21.9348 3.98657 21.6572 2.81486 20.7632 2.2634C19.8693 1.71193 18.6976 1.98954 18.1462 2.88345L15.1462 7.74622L14.0293 1.56399Z" fill="white"/>
<path fill-rule="evenodd" clip-rule="evenodd" d="M14.0293 1.56399C13.8425 0.530394 12.8533 -0.156115 11.8197 0.0306271C10.7861 0.217369 10.0996 1.20665 10.2863 2.24024L11.2293 7.45965L6.38674 2.61707C5.64405 1.87438 4.4399 1.87438 3.69721 2.61707C2.95451 3.35977 2.95451 4.56391 3.69721 5.3066L10.4817 12.0911L1.25238 15.4472C0.265291 15.8062 -0.243924 16.8973 0.115018 17.8844C0.473959 18.8715 1.56513 19.3807 2.55223 19.0218L9.82075 16.3787L5.22472 23.8287C4.67326 24.7226 4.95086 25.8943 5.84477 26.4458C6.73868 26.9973 7.91039 26.7196 8.46185 25.8257L13.169 18.1956L14.7671 27.0411C14.9539 28.0747 15.9432 28.7612 16.9768 28.5744C18.0103 28.3877 18.6969 27.3984 18.5101 26.3648L17.1329 18.7423L21.4893 23.0987C22.232 23.8414 23.4361 23.8414 24.1788 23.0987C24.9215 22.356 24.9215 21.1519 24.1788 20.4092L17.3943 13.6247L26.6236 10.2686C27.6107 9.90961 28.12 8.81843 27.761 7.83134C27.4021 6.84425 26.3109 6.33504 25.3238 6.69398L18.8013 9.06579L21.3833 4.88048C21.9348 3.98657 21.6572 2.81486 20.7632 2.2634C19.8693 1.71193 18.6976 1.98954 18.1462 2.88345L15.1462 7.74622L14.0293 1.56399Z" fill="white"/>
<path fill-rule="evenodd" clip-rule="evenodd" d="M14.0293 1.56399C13.8425 0.530394 12.8533 -0.156115 11.8197 0.0306271C10.7861 0.217369 10.0996 1.20665 10.2863 2.24024L11.2293 7.45965L6.38674 2.61707C5.64405 1.87438 4.4399 1.87438 3.69721 2.61707C2.95451 3.35977 2.95451 4.56391 3.69721 5.3066L10.4817 12.0911L1.25238 15.4472C0.265291 15.8062 -0.243924 16.8973 0.115018 17.8844C0.473959 18.8715 1.56513 19.3807 2.55223 19.0218L9.82075 16.3787L5.22472 23.8287C4.67326 24.7226 4.95086 25.8943 5.84477 26.4458C6.73868 26.9973 7.91039 26.7196 8.46185 25.8257L13.169 18.1956L14.7671 27.0411C14.9539 28.0747 15.9432 28.7612 16.9768 28.5744C18.0103 28.3877 18.6969 27.3984 18.5101 26.3648L17.1329 18.7423L21.4893 23.0987C22.232 23.8414 23.4361 23.8414 24.1788 23.0987C24.9215 22.356 24.9215 21.1519 24.1788 20.4092L17.3943 13.6247L26.6236 10.2686C27.6107 9.90961 28.12 8.81843 27.761 7.83134C27.4021 6.84425 26.3109 6.33504 25.3238 6.69398L18.8013 9.06579L21.3833 4.88048C21.9348 3.98657 21.6572 2.81486 20.7632 2.2634C19.8693 1.71193 18.6976 1.98954 18.1462 2.88345L15.1462 7.74622L14.0293 1.56399Z" fill="white"/>
<path fill-rule="evenodd" clip-rule="evenodd" d="M14.0293 1.56399C13.8425 0.530394 12.8533 -0.156115 11.8197 0.0306271C10.7861 0.217369 10.0996 1.20665 10.2863 2.24024L11.2293 7.45965L6.38674 2.61707C5.64405 1.87438 4.4399 1.87438 3.69721 2.61707C2.95451 3.35977 2.95451 4.56391 3.69721 5.3066L10.4817 12.0911L1.25238 15.4472C0.265291 15.8062 -0.243924 16.8973 0.115018 17.8844C0.473959 18.8715 1.56513 19.3807 2.55223 19.0218L9.82075 16.3787L5.22472 23.8287C4.67326 24.7226 4.95086 25.8943 5.84477 26.4458C6.73868 26.9973 7.91039 26.7196 8.46185 25.8257L13.169 18.1956L14.7671 27.0411C14.9539 28.0747 15.9432 28.7612 16.9768 28.5744C18.0103 28.3877 18.6969 27.3984 18.5101 26.3648L17.1329 18.7423L21.4893 23.0987C22.232 23.8414 23.4361 23.8414 24.1788 23.0987C24.9215 22.356 24.9215 21.1519 24.1788 20.4092L17.3943 13.6247L26.6236 10.2686C27.6107 9.90961 28.12 8.81843 27.761 7.83134C27.4021 6.84425 26.3109 6.33504 25.3238 6.69398L18.8013 9.06579L21.3833 4.88048C21.9348 3.98657 21.6572 2.81486 20.7632 2.2634C19.8693 1.71193 18.6976 1.98954 18.1462 2.88345L15.1462 7.74622L14.0293 1.56399Z" fill="white"/>
</svg>
