<svg width="26" height="23" viewBox="0 0 26 23" fill="none" xmlns="http://www.w3.org/2000/svg">
<path d="M11.2246 2L15.2551 21.0179" stroke="white" stroke-width="3.80357" stroke-miterlimit="22.9256" stroke-linecap="round" stroke-linejoin="round"/>
<path d="M11.2246 2L15.2551 21.0179" stroke="white" stroke-width="3.80357" stroke-miterlimit="22.9256" stroke-linecap="round" stroke-linejoin="round"/>
<path d="M11.2246 2L15.2551 21.0179" stroke="white" stroke-width="3.80357" stroke-miterlimit="22.9256" stroke-linecap="round" stroke-linejoin="round"/>
<path d="M11.2246 2L15.2551 21.0179" stroke="white" stroke-width="3.80357" stroke-miterlimit="22.9256" stroke-linecap="round" stroke-linejoin="round"/>
<path d="M11.2246 2L15.2551 21.0179" stroke="white" stroke-width="3.80357" stroke-miterlimit="22.9256" stroke-linecap="round" stroke-linejoin="round"/>
<path d="M11.2246 2L15.2551 21.0179" stroke="white" stroke-width="3.80357" stroke-miterlimit="22.9256" stroke-linecap="round" stroke-linejoin="round"/>
<path d="M23.6522 7.04504L2 13.7572" stroke="white" stroke-width="3.80357" stroke-miterlimit="22.9256" stroke-linecap="round" stroke-linejoin="round"/>
<path d="M23.6522 7.04504L2 13.7572" stroke="white" stroke-width="3.80357" stroke-miterlimit="22.9256" stroke-linecap="round" stroke-linejoin="round"/>
<path d="M23.6522 7.04504L2 13.7572" stroke="white" stroke-width="3.80357" stroke-miterlimit="22.9256" stroke-linecap="round" stroke-linejoin="round"/>
<path d="M23.6522 7.04504L2 13.7572" stroke="white" stroke-width="3.80357" stroke-miterlimit="22.9256" stroke-linecap="round" stroke-linejoin="round"/>
<path d="M23.6522 7.04504L2 13.7572" stroke="white" stroke-width="3.80357" stroke-miterlimit="22.9256" stroke-linecap="round" stroke-linejoin="round"/>
<path d="M23.6522 7.04504L2 13.7572" stroke="white" stroke-width="3.80357" stroke-miterlimit="22.9256" stroke-linecap="round" stroke-linejoin="round"/>
<path d="M4.82422 3.57945L20.8282 17.2228" stroke="white" stroke-width="3.80357" stroke-miterlimit="22.9256" stroke-linecap="round" stroke-linejoin="round"/>
<path d="M4.82422 3.57945L20.8282 17.2228" stroke="white" stroke-width="3.80357" stroke-miterlimit="22.9256" stroke-linecap="round" stroke-linejoin="round"/>
<path d="M4.82422 3.57945L20.8282 17.2228" stroke="white" stroke-width="3.80357" stroke-miterlimit="22.9256" stroke-linecap="round" stroke-linejoin="round"/>
<path d="M4.82422 3.57945L20.8282 17.2228" stroke="white" stroke-width="3.80357" stroke-miterlimit="22.9256" stroke-linecap="round" stroke-linejoin="round"/>
<path d="M4.82422 3.57945L20.8282 17.2228" stroke="white" stroke-width="3.80357" stroke-miterlimit="22.9256" stroke-linecap="round" stroke-linejoin="round"/>
<path d="M4.82422 3.57945L20.8282 17.2228" stroke="white" stroke-width="3.80357" stroke-miterlimit="22.9256" stroke-linecap="round" stroke-linejoin="round"/>
<path d="M18.0681 3.51821L6.44531 19.5795" stroke="white" stroke-width="3.80357" stroke-miterlimit="22.9256" stroke-linecap="round" stroke-linejoin="round"/>
<path d="M18.0681 3.51821L6.44531 19.5795" stroke="white" stroke-width="3.80357" stroke-miterlimit="22.9256" stroke-linecap="round" stroke-linejoin="round"/>
<path d="M18.0681 3.51821L6.44531 19.5795" stroke="white" stroke-width="3.80357" stroke-miterlimit="22.9256" stroke-linecap="round" stroke-linejoin="round"/>
<path d="M18.0681 3.51821L6.44531 19.5795" stroke="white" stroke-width="3.80357" stroke-miterlimit="22.9256" stroke-linecap="round" stroke-linejoin="round"/>
<path d="M18.0681 3.51821L6.44531 19.5795" stroke="white" stroke-width="3.80357" stroke-miterlimit="22.9256" stroke-linecap="round" stroke-linejoin="round"/>
<path d="M18.0681 3.51821L6.44531 19.5795" stroke="white" stroke-width="3.80357" stroke-miterlimit="22.9256" stroke-linecap="round" stroke-linejoin="round"/>
</svg>
