<svg width="254" height="201" viewBox="0 0 254 201" fill="none" xmlns="http://www.w3.org/2000/svg">
<path d="M86.6697 120.94L86.3173 120.005L86.6697 120.94ZM164.664 120.779L163.698 121.039L163.71 121.083L163.726 121.126L164.664 120.779ZM127.136 119.401L127.886 120.065L127.896 120.054L127.905 120.043L127.136 119.401ZM218.366 80.2737L217.695 81.0129L218.366 80.2737ZM249.172 95.9898L249.542 96.9185L251.107 96.3037L249.813 95.2253L249.172 95.9898ZM235.284 100.371C234.769 100.573 234.518 101.152 234.723 101.665C234.927 102.178 235.51 102.43 236.024 102.228L235.284 100.371ZM9.06785 111.943C12.6328 91.5797 24.8655 82.0995 37.0337 79.3765C43.1486 78.0081 49.2594 78.3437 54.2751 79.8806C59.3158 81.4251 63.1188 84.1367 64.8232 87.4012L66.6004 86.4847C64.557 82.5709 60.1908 79.6067 54.8586 77.9729C49.5015 76.3314 43.0359 75.986 36.5885 77.4288C23.6322 80.3282 10.7972 90.4391 7.09373 111.594L9.06785 111.943ZM64.8232 87.4012C66.5373 90.6842 66.4452 95.2035 65.7686 100.173C65.4332 102.636 64.968 105.131 64.5481 107.586C64.1314 110.022 63.7603 112.414 63.6353 114.595C63.5108 116.766 63.6234 118.818 64.235 120.544C64.8613 122.311 66.0114 123.73 67.8844 124.555C69.7109 125.36 72.1232 125.556 75.2157 125.138C78.3185 124.718 82.197 123.666 87.022 121.876L86.3173 120.005C81.565 121.768 77.8398 122.767 74.9395 123.16C72.0289 123.554 70.0387 123.325 68.6902 122.73C67.3882 122.156 66.5909 121.201 66.1243 119.885C65.6431 118.527 65.5173 116.784 65.6359 114.715C65.7539 112.656 66.1073 110.36 66.5236 107.927C66.9367 105.512 67.4129 102.955 67.7543 100.448C68.4312 95.476 68.6341 90.38 66.6004 86.4847L64.8232 87.4012ZM87.022 121.876C93.7931 119.364 111.204 112.143 127.922 109.133C136.287 107.627 144.359 107.2 150.781 108.874C157.137 110.532 161.833 114.224 163.698 121.039L165.631 120.52C163.541 112.882 158.192 108.745 151.282 106.943C144.439 105.159 136.025 105.645 127.56 107.169C110.617 110.219 92.9843 117.531 86.3173 120.005L87.022 121.876ZM163.726 121.126C165.836 126.756 166.138 131.668 165.195 135.868C164.253 140.069 162.051 143.622 159.05 146.51C153.025 152.308 143.808 155.388 135.401 155.497C126.926 155.606 119.742 152.719 117.243 147.153C114.755 141.61 116.606 132.718 127.886 120.065L126.386 118.737C115.018 131.488 112.403 141.254 115.414 147.963C118.416 154.648 126.696 157.606 135.433 157.493C144.238 157.379 153.981 154.168 160.444 147.948C163.687 144.827 166.112 140.939 167.151 136.309C168.19 131.678 167.828 126.37 165.603 120.433L163.726 121.126ZM127.905 120.043C135.216 111.351 151.112 95.496 168.545 84.8955C177.263 79.5944 186.297 75.65 194.787 74.5285C203.243 73.4113 211.126 75.0939 217.695 81.0129L219.037 79.5345C211.942 73.1416 203.429 71.3724 194.517 72.5497C185.639 73.7226 176.332 77.8189 167.497 83.1908C149.826 93.9364 133.771 109.957 126.367 118.758L127.905 120.043ZM217.695 81.0129C223.724 86.4447 228.205 90.041 231.452 92.2645C233.075 93.3754 234.411 94.1592 235.495 94.6578C236.544 95.1409 237.482 95.4167 238.258 95.3524C238.671 95.3182 239.088 95.1829 239.429 94.8826C239.771 94.5806 239.947 94.1904 240.02 93.8092C240.155 93.1011 239.961 92.2919 239.681 91.5496C239.101 90.0124 237.89 88.1048 236.426 86.3142L234.874 87.5717C236.268 89.2767 237.332 90.9926 237.806 92.2468C238.052 92.9003 238.08 93.2789 238.051 93.4307C238.042 93.4793 238.04 93.4371 238.098 93.3861C238.154 93.3367 238.18 93.3554 238.085 93.3632C237.847 93.3829 237.305 93.2948 236.33 92.8462C235.389 92.413 234.156 91.6972 232.584 90.6207C229.442 88.4695 225.036 84.9397 219.037 79.5345L217.695 81.0129ZM236.426 86.3142C236.078 85.8896 235.845 85.5747 235.7 85.3523C235.628 85.2408 235.588 85.1686 235.57 85.1289C235.544 85.0744 235.577 85.1233 235.587 85.2373C235.599 85.3627 235.586 85.7383 235.231 86.003C234.945 86.2164 234.665 86.1735 234.648 86.1714C234.585 86.1632 234.642 86.1627 234.889 86.2913C235.796 86.7633 237.592 88.0531 239.658 89.6352C241.694 91.1943 243.912 92.9735 245.623 94.3654C246.478 95.0608 247.205 95.6584 247.718 96.0821C247.975 96.2939 248.178 96.4622 248.317 96.5774C248.387 96.635 248.44 96.6794 248.476 96.7093C248.494 96.7242 248.508 96.7355 248.517 96.7431C248.521 96.7469 248.525 96.7497 248.527 96.7516C248.528 96.7525 248.529 96.7532 248.529 96.7537C248.53 96.7539 248.53 96.7541 248.53 96.7542C248.53 96.7543 248.53 96.7543 249.172 95.9898C249.813 95.2253 249.813 95.2252 249.813 95.225C249.813 95.2249 249.813 95.2247 249.812 95.2245C249.812 95.2239 249.811 95.2232 249.81 95.2222C249.807 95.2202 249.804 95.2172 249.799 95.2133C249.79 95.2055 249.776 95.194 249.757 95.1788C249.721 95.1484 249.667 95.1035 249.597 95.0454C249.457 94.9291 249.252 94.7596 248.994 94.5466C248.478 94.1205 247.746 93.5198 246.887 92.8208C245.17 91.424 242.935 89.6306 240.876 88.0541C238.847 86.5006 236.905 85.0917 235.812 84.5229C235.56 84.3913 235.225 84.2341 234.901 84.1921C234.754 84.173 234.375 84.1438 234.027 84.404C233.609 84.7155 233.57 85.1709 233.591 85.4116C233.612 85.6409 233.694 85.8404 233.757 85.9744C233.827 86.1233 233.918 86.2775 234.019 86.4326C234.22 86.7433 234.506 87.1224 234.874 87.5717L236.426 86.3142ZM248.802 95.0612L235.284 100.371L236.024 102.228L249.542 96.9185L248.802 95.0612Z" fill="white"/>
</svg>
