<svg width="330" height="55" viewBox="0 0 330 55" fill="none" xmlns="http://www.w3.org/2000/svg">
<path d="M1.21647 37.2023C35.6112 55.9491 259.045 -8.89012 249.079 2.61796C244.797 8.60497 218.14 13.6924 205.094 20.3823C199.721 23.4501 190.636 31.1314 213.469 39.1994C225.408 43.4182 237.956 45.2256 247.755 46.2359C256.38 47.0618 264.212 47.3481 271.895 47.6325L273.106 47.677C287.495 48.2187 299.765 48.4944 316.024 50.0377C327.257 51.1339 327.586 51.0968 312.771 47.4288C302.958 44.9994 289.464 41.7231 310.235 46.4641C341.456 53.5906 325.805 51.4511 313.746 53.5422C313.305 53.6195 312.879 53.7012 312.454 53.785" stroke="white" stroke-width="2" stroke-miterlimit="22.9256"/>
</svg>
